#!OML:ASF I:\Actors\actors\Patient Classification 2\Patient 1\Session 1\actor1.ASF
:FULLY-SPECIFIED
:DEGREES
203
root -0.669042 18.6542 4.24475 -0.681896 -1.80224 -3.83626
lowerback 19.5161 0.837131 -0.0870435
upperback 5.77605 1.12062 0.886984
thorax -4.70019 0.54177 0.73639
lowerneck 0.15869 -2.78901 2.17723
upperneck 3.68476 -3.79236 1.7814
head 1.09469 -1.84054 0.152963
rclavicle 1.32192e-014 -2.18663e-015
rhumerus 13.5176 18.8066 -35.6467
rradius 136.096
rwrist -30.37
rhand -10.7778 -44.2893
rfingers 7.12502
rthumb 15.2345 -73.7083
lclavicle 1.32192e-014 -2.18663e-015
lhumerus -42.5138 -6.21683 84.4839
lradius 59.8032
lwrist 6.68798
lhand -12.8617 -28.3161
lfingers 7.12502
lthumb 13.2265 1.24425
rfemur 0 0 0
rtibia 0
rfoot 0 0
rtoes 0
lfemur -11.0884 -0.57025 -9.71533
ltibia 27.4499
lfoot -18.5545 8.76899
ltoes -56.1386
204
root -0.671951 18.6529 4.23944 -0.678244 -1.82678 -3.87051
lowerback 19.6223 0.850569 -0.0700246
upperback 5.71909 1.14186 0.883332
thorax -4.81662 0.552207 0.716295
lowerneck 0.0974669 -2.76991 2.19269
upperneck 3.58034 -3.76635 1.76897
head 1.07187 -1.82885 0.146844
rclavicle -4.77083e-015 1.21259e-014
rhumerus 13.6346 18.5585 -35.6443
rradius 136.069
rwrist -30.2953
rhand -10.8304 -44.2692
rfingers 7.12502
rthumb 15.1839 -73.6921
lclavicle -4.77083e-015 1.21259e-014
lhumerus -42.5331 -6.21664 84.4717
lradius 59.8088
lwrist 6.67194
lhand -12.861 -28.2935
lfingers 7.12502
lthumb 13.2271 1.26689
rfemur 0 0 0
rtibia 0
rfoot 0 0
rtoes 0
lfemur -11.1348 -0.511972 -9.66473
ltibia 27.4948
lfoot -18.5368 8.76263
ltoes -56.1671
205
root -0.674866 18.6514 4.23364 -0.686565 -1.83935 -3.89676
lowerback 19.7597 0.862928 -0.049589
upperback 5.67028 1.16222 0.876694
thorax -4.94046 0.562135 0.690883
lowerneck 0.0696818 -2.76529 2.15341
upperneck 3.43597 -3.7589 1.81335
head 1.03318 -1.8272 0.167666
rclavicle -4.57205e-015 1.39149e-015
rhumerus 13.7082 18.2911 -35.6048
rradius 136.082
rwrist -30.2094
rhand -10.9429 -44.2285
rfingers 7.12502
rthumb 15.0755 -73.6596
lclavicle -4.57205e-015 1.39149e-015
lhumerus -42.5438 -6.23766 84.4502
lradius 59.8089
lwrist 6.66612
lhand -12.7898 -28.3671
lfingers 7.12502
lthumb 13.2958 1.18882
rfemur 0 0 0
rtibia 0
rfoot 0 0
rtoes 0
lfemur -11.1778 -0.460793 -9.6264
ltibia 27.5439
lfoot -18.4966 8.79749
ltoes -56.3199
206
root -0.679934 18.6498 4.22624 -0.666657 -1.83389 -3.89609
lowerback 19.8794 0.881962 -0.0982997
upperback 5.62038 1.17864 0.882342
thorax -5.05783 0.570371 0.718961
lowerneck 0.0239331 -2.76832 2.10509
upperneck 3.29885 -3.76248 1.86644
head 1.00019 -1.83084 0.192141
rclavicle 2.0773e-014 -1.2921e-014
rhumerus 13.8274 18.0139 -35.5441
rradius 136.104
rwrist -30.2556
rhand -11.1434 -44.2081
rfingers 7.12502
rthumb 14.8823 -73.6535
lclavicle 2.0773e-014 -1.2921e-014
lhumerus -42.5129 -6.26553 84.4754
lradius 60.0784
lwrist 6.34237
lhand -12.6793 -27.1926
lfingers 7.12502
lthumb 13.4023 2.35632
rfemur 0 0 0
rtibia 0
rfoot 0 0
rtoes 0
lfemur -11.2523 -0.41349 -9.60593
ltibia 27.5866
lfoot -18.4744 8.78069
ltoes -56.3685
207
root -0.686 18.6474 4.21899 -0.641108 -1.80846 -3.84448
lowerback 19.9758 0.89709 -0.217613
upperback 5.58615 1.17549 0.883211
thorax -5.14721 0.569446 0.787141
lowerneck -0.0821388 -2.7603 2.1109
upperneck 3.15095 -3.75176 1.86197
head 0.971795 -1.82721 0.18956
rclavicle 5.66536e-015 -1.98785e-016
rhumerus 14.0108 17.7243 -35.477
rradius 136.099
rwrist -30.255
rhand -11.1936 -44.4149
rfingers 7.12502
rthumb 14.834 -73.864
lclavicle 5.66536e-015 -1.98785e-016
lhumerus -42.418 -6.22172 84.4804
lradius 59.8022
lwrist 6.73523
lhand -12.8312 -28.4222
lfingers 7.12502
lthumb 13.2559 1.13633
rfemur 0 0 0
rtibia 0
rfoot 0 0
rtoes 0
lfemur -11.3325 -0.436503 -9.63723
ltibia 27.6274
lfoot -18.4647 8.7504
ltoes -56.2956
208
root -0.689862 18.6447 4.21417 -0.653069 -1.79071 -3.79515
lowerback 20.0943 0.903242 -0.293029
upperback 5.57105 1.16723 0.860128
thorax -5.22606 0.565863 0.80589
lowerneck -0.211278 -2.74725 2.20172
upperneck 3.01886 -3.73536 1.82013
head 0.949855 -1.81988 0.161374
rclavicle 7.05686e-015 -1.55052e-014
rhumerus 14.1747 17.4384 -35.4377
rradius 136.037
rwrist -30.0235
rhand -11.1596 -44.4044
rfingers 7.12502
rthumb 14.8667 -73.851
lclavicle 7.05686e-015 -1.55052e-014
lhumerus -42.3421 -6.19502 84.4475
lradius 59.8017
lwrist 6.77933
lhand -12.7828 -28.5493
lfingers 7.12502
lthumb 13.3026 1.00609
rfemur 0 0 0
rtibia 0
rfoot 0 0
rtoes 0
lfemur -11.3583 -0.525549 -9.68117
ltibia 27.6655
lfoot -18.4742 8.78547
ltoes -56.305
209
root -0.692808 18.6432 4.2091 -0.619528 -1.80292 -3.76122
lowerback 20.1969 0.922458 -0.309062
upperback 5.52449 1.18604 0.810651
thorax -5.32927 0.575356 0.755999
lowerneck -0.305266 -2.7383 2.31668
upperneck 2.91281 -3.72533 1.81365
head 0.930423 -1.81492 0.140305
rclavicle 1.78906e-015 -6.75868e-015
rhumerus 14.2524 17.1191 -35.4261
rradius 135.941
rwrist -29.7735
rhand -11.0186 -44.0257
rfingers 7.12502
rthumb 15.0026 -73.4622
lclavicle 1.78906e-015 -6.75868e-015
lhumerus -42.3101 -6.27662 84.3969
lradius 59.8269
lwrist 6.86449
lhand -12.785 -28.6489
lfingers 7.12502
lthumb 13.3004 0.90664
rfemur 0 0 0
rtibia 0
rfoot 0 0
rtoes 0
lfemur -11.4263 -0.557543 -9.71351
ltibia 27.6965
lfoot -18.4758 8.84904
ltoes -56.3834
210
root -0.696858 18.6422 4.20245 -0.542257 -1.81487 -3.73132
lowerback 20.3041 0.933989 -0.317515
upperback 5.43876 1.19664 0.762916
thorax -5.47684 0.580925 0.705176
lowerneck -0.35996 -2.73331 2.37922
upperneck 2.77133 -3.71863 1.83432
head 0.894948 -1.81273 0.136931
rclavicle 8.94531e-015 -3.97569e-016
rhumerus 14.3153 16.8272 -35.4129
rradius 135.904
rwrist -29.6662
rhand -10.832 -43.7775
rfingers 7.12502
rthumb 15.1824 -73.2005
lclavicle 8.94531e-015 -3.97569e-016
lhumerus -42.3565 -6.38235 84.3605
lradius 59.9087
lwrist 6.97666
lhand -12.8958 -28.6232
lfingers 7.12502
lthumb 13.1937 0.93927
rfemur 0 0 0
rtibia 0
rfoot 0 0
rtoes 0
lfemur -11.5494 -0.51645 -9.73012
ltibia 27.7216
lfoot -18.4268 8.87283
ltoes -56.3758
211
root -0.702995 18.6415 4.19621 -0.488208 -1.80692 -3.69633
lowerback 20.4445 0.926929 -0.371739
upperback 5.34138 1.17439 0.726328
thorax -5.65506 0.570876 0.699879
lowerneck -0.319011 -2.70425 2.39109
upperneck 2.53209 -3.67485 1.90597
head 0.81528 -1.79424 0.159902
rclavicle -1.23246e-014 3.97569e-015
rhumerus 14.415 16.6767 -35.4184
rradius 135.977
rwrist -29.7211
rhand -11.037 -43.7866
rfingers 7.12502
rthumb 14.9848 -73.2245
lclavicle -1.23246e-014 3.97569e-015
lhumerus -42.477 -6.38988 84.3142
lradius 60.0346
lwrist 6.99777
lhand -12.9964 -28.4297
lfingers 7.12502
lthumb 13.0967 1.13905
rfemur 0 0 0
rtibia 0
rfoot 0 0
rtoes 0
lfemur -11.6441 -0.418086 -9.73983
ltibia 27.7406
lfoot -18.3559 8.81129
ltoes -56.3747
212
root -0.711448 18.6404 4.19193 -0.426853 -1.85458 -3.6465
lowerback 20.5168 0.96122 -0.492168
upperback 5.26671 1.19232 0.694429
thorax -5.77533 0.580896 0.728349
lowerneck -0.29487 -2.66922 2.4247
upperneck 2.2731 -3.62242 1.94503
head 0.731547 -1.7719 0.169357
rclavicle 8.54774e-015 -6.75868e-015
rhumerus 14.5016 16.5622 -35.4152
rradius 136.098
rwrist -29.8197
rhand -11.6634 -43.7987
rfingers 7.12502
rthumb 14.3814 -73.2805
lclavicle 8.54774e-015 -6.75868e-015
lhumerus -42.5157 -6.36085 84.2603
lradius 60.0463
lwrist 6.91629
lhand -12.9963 -28.3826
lfingers 7.12502
lthumb 13.0968 1.18619
rfemur 0 0 0
rtibia 0
rfoot 0 0
rtoes 0
lfemur -11.7209 -0.295647 -9.75523
ltibia 27.752
lfoot -18.3353 8.72835
ltoes -56.3779
213
root -0.71948 18.6392 4.18955 -0.355381 -1.94988 -3.58898
lowerback 20.5136 1.02679 -0.610712
upperback 5.24778 1.25243 0.682954
thorax -5.79729 0.611176 0.768431
lowerneck -0.482683 -2.68055 2.37788
upperneck 2.10891 -3.63968 1.94199
head 0.712969 -1.7826 0.174471
rclavicle 5.96354e-016 -1.51076e-014
rhumerus 14.6704 16.2405 -35.3719
rradius 136.067
rwrist -29.6073
rhand -11.8338 -43.6357
rfingers 7.12502
rthumb 14.2172 -73.1291
lclavicle 5.96354e-016 -1.51076e-014
lhumerus -42.3927 -6.34757 84.2565
lradius 59.9367
lwrist 6.85486
lhand -12.9055 -28.5273
lfingers 7.12502
lthumb 13.1843 1.03579
rfemur 0 0 0
rtibia 0
rfoot 0 0
rtoes 0
lfemur -11.7897 -0.214951 -9.78366
ltibia 27.7622
lfoot -18.3518 8.70987
ltoes -56.3347
214
root -0.725594 18.6383 4.18782 -0.31385 -1.98756 -3.53717
lowerback 20.5267 1.03961 -0.715255
upperback 5.25228 1.24832 0.695461
thorax -5.80158 0.610058 0.842306
lowerneck -0.668452 -2.6693 2.26567
upperneck 1.89084 -3.6248 1.95195
head 0.678982 -1.77843 0.194804
rclavicle -1.54058e-014 -3.97569e-015
rhumerus 15.0187 15.7597 -35.3384
rradius 135.888
rwrist -29.1866
rhand -11.2873 -43.4699
rfingers 7.12502
rthumb 14.7437 -72.9256
lclavicle -1.54058e-014 -3.97569e-015
lhumerus -42.2728 -6.26203 84.2571
lradius 59.8528
lwrist 6.8343
lhand -12.8127 -28.5787
lfingers 7.12502
lthumb 13.2737 0.978649
rfemur 0 0 0
rtibia 0
rfoot 0 0
rtoes 0
lfemur -11.8359 -0.220837 -9.82183
ltibia 27.7764
lfoot -18.3604 8.74952
ltoes -56.3186
215
root -0.731394 18.6373 4.18493 -0.284256 -1.99015 -3.53888
lowerback 20.5767 1.02414 -0.76649
upperback 5.23032 1.21876 0.715153
thorax -5.85223 0.596356 0.899246
lowerneck -0.753678 -2.63027 2.2442
upperneck 1.63009 -3.56856 1.90954
head 0.612585 -1.75458 0.186863
rclavicle -1.98785e-014 8.34896e-015
rhumerus 15.3491 15.3297 -35.3151
rradius 135.798
rwrist -28.9273
rhand -10.777 -43.4013
rfingers 7.12502
rthumb 15.2353 -72.8203
lclavicle -1.98785e-014 8.34896e-015
lhumerus -42.2397 -6.18776 84.2418
lradius 59.8302
lwrist 6.84894
lhand -12.7549 -28.5456
lfingers 7.12502
lthumb 13.3294 1.00807
rfemur 0 0 0
rtibia 0
rfoot 0 0
rtoes 0
lfemur -11.8832 -0.312311 -9.80435
ltibia 27.793
lfoot -18.3739 8.86567
ltoes -56.3433
216
root -0.738654 18.6372 4.18255 -0.261609 -2.00302 -3.57612
lowerback 20.6508 1.04297 -0.747726
upperback 5.19867 1.24786 0.730715
thorax -5.92585 0.610594 0.896755
lowerneck -0.920469 -2.64564 2.25125
upperneck 1.46177 -3.58957 1.83105
head 0.586861 -1.76742 0.16089
rclavicle 1.88845e-015 -4.37326e-015
rhumerus 15.5423 14.9478 -35.2753
rradius 135.783
rwrist -28.783
rhand -10.7237 -43.337
rfingers 7.12502
rthumb 15.2867 -72.7521
lclavicle 1.88845e-015 -4.37326e-015
lhumerus -42.2131 -6.25333 84.2754
lradius 59.8408
lwrist 6.88226
lhand -12.7257 -28.4974
lfingers 7.12502
lthumb 13.3576 1.05445
rfemur 0 0 0
rtibia 0
rfoot 0 0
rtoes 0
lfemur -11.9208 -0.389847 -9.73708
ltibia 27.8093
lfoot -18.3981 8.97205
ltoes -56.3805
217
root -0.748534 18.6379 4.18312 -0.217845 -2.00725 -3.5945
lowerback 20.6956 1.07731 -0.749064
upperback 5.14623 1.29262 0.735375
thorax -6.00711 0.632778 0.890174
lowerneck -1.04644 -2.66657 2.26906
upperneck 1.24733 -3.61588 1.7446
head 0.539912 -1.78383 0.13183
rclavicle 6.4605e-015 -1.07344e-014
rhumerus 15.6943 14.5944 -35.2581
rradius 135.77
rwrist -28.7095
rhand -10.8607 -43.3013
rfingers 7.12502
rthumb 15.1547 -72.7264
lclavicle 6.4605e-015 -1.07344e-014
lhumerus -42.1978 -6.33476 84.3129
lradius 59.834
lwrist 6.86881
lhand -12.7349 -28.4574
lfingers 7.12502
lthumb 13.3487 1.09502
rfemur 0 0 0
rtibia 0
rfoot 0 0
rtoes 0
lfemur -11.9708 -0.374719 -9.67646
ltibia 27.8251
lfoot -18.4075 8.95337
ltoes -56.3898
218
root -0.759164 18.6382 4.18488 -0.140842 -2.00259 -3.59897
lowerback 20.7028 1.1016 -0.766738
upperback 5.06105 1.31951 0.714633
thorax -6.10348 0.646651 0.870291
lowerneck -1.04648 -2.65874 2.33309
upperneck 0.968831 -3.60022 1.72287
head 0.453253 -1.78022 0.117742
rclavicle 2.28602e-015 1.47101e-014
rhumerus 15.8051 14.3049 -35.2784
rradius 135.801
rwrist -28.6529
rhand -11.0007 -43.2781
rfingers 7.12502
rthumb 15.0198 -72.7133
lclavicle 2.28602e-015 1.47101e-014
lhumerus -42.2243 -6.39319 84.2974
lradius 59.7894
lwrist 6.8177
lhand -12.8047 -28.4762
lfingers 7.12502
lthumb 13.2814 1.08062
rfemur 0 0 0
rtibia 0
rfoot 0 0
rtoes 0
lfemur -12.0536 -0.321091 -9.63041
ltibia 27.8407
lfoot -18.388 8.894
ltoes -56.4013
